<svg xmlns="http://www.w3.org/2000/svg" viewBox="0 0 100 86.436">
  <defs>
    <style>
      .cls-1 {
        fill: gray;
      }
    </style>
  </defs>
  <g id="Group_308" data-name="Group 308" transform="translate(-5982 336.164)">
    <rect id="Rectangle_156" data-name="Rectangle 156" class="cls-1" width="66.93" height="10.218" transform="translate(6002.13 -328.844)"/>
    <rect id="Rectangle_157" data-name="Rectangle 157" class="cls-1" width="66.93" height="10.218" transform="translate(6002.13 -297.984)"/>
    <rect id="Rectangle_158" data-name="Rectangle 158" class="cls-1" width="66.93" height="10.218" transform="translate(6002.13 -267.227)"/>
    <rect id="Rectangle_159" data-name="Rectangle 159" class="cls-1" width="9.503" height="10.218" transform="translate(5982 -328.844)"/>
    <rect id="Rectangle_160" data-name="Rectangle 160" class="cls-1" width="9.503" height="10.218" transform="translate(5982 -297.984)"/>
    <rect id="Rectangle_161" data-name="Rectangle 161" class="cls-1" width="9.503" height="10.218" transform="translate(5982 -267.227)"/>
    <path id="Path_350" data-name="Path 350" class="cls-1" d="M1.827.284,13.318,11.775a1.018,1.018,0,0,1,0,1.49L1.827,24.8A1.072,1.072,0,0,1,0,24.035V1.053A1.083,1.083,0,0,1,1.827.284Z" transform="translate(6068.358 -336.156)"/>
    <path id="Path_351" data-name="Path 351" class="cls-1" d="M1.827.284,13.318,11.775a1.018,1.018,0,0,1,0,1.49L1.827,24.8A1.072,1.072,0,0,1,0,24.035V1.053A1.083,1.083,0,0,1,1.827.284Z" transform="translate(6068.358 -305.501)"/>
    <path id="Path_352" data-name="Path 352" class="cls-1" d="M1.827.284,13.318,11.775a1.018,1.018,0,0,1,0,1.49L1.827,24.8A1.072,1.072,0,0,1,0,24.035V1.053A1.083,1.083,0,0,1,1.827.284Z" transform="translate(6068.358 -274.846)"/>
  </g>
</svg>
